#!OML:ASF F:\VICON\USERDATA\INSTALL\rory3\rory3.ASF
:FULLY-SPECIFIED
:DEGREES
214
root 0.713097 17.9517 -0.695992 1.2122 -30.6309 2.61453
lowerback 2.11485 -1.79024 -5.24837
upperback -0.0118264 -2.49335 2.45623
thorax -0.864645 -1.22362 5.55558
lowerneck -25.9229 0.851291 -10.446
upperneck 1.44004 3.6204 6.25013
head 4.10598 2.07818 4.02461
rclavicle -3.34952e-014 3.18055e-015
rhumerus -34.4591 -7.63566 -70.4977
rradius 38.8129
rwrist 13.7661
rhand -26.4248 12.004
rfingers 7.12502
rthumb 0.13546 -17.9757
lclavicle -3.34952e-014 3.18055e-015
lhumerus 50.2621 3.87454 48.6022
lradius 101.131
lwrist -2.24042
lhand -38.4384 23.9655
lfingers 7.12502
lthumb -11.4621 53.6321
rfemur -10.8703 2.50498 9.65785
rtibia 24.939
rfoot -15.4369 -9.28871
rtoes 2.25622
lfemur -1.28439 1.20702 -24.5102
ltibia 13.4442
lfoot -9.74086 6.89445
ltoes -11.688
215
root 0.71311 17.9532 -0.6948 1.26095 -30.611 2.58357
lowerback 2.1274 -1.80155 -5.23231
upperback 0.0142469 -2.5083 2.47936
thorax -0.842381 -1.23262 5.57077
lowerneck -25.963 0.820581 -10.4863
upperneck 0.932104 3.58697 6.35793
head 3.9511 2.07657 4.05566
rclavicle 4.55217e-014 -2.14687e-014
rhumerus -34.3599 -7.68364 -70.4888
rradius 38.7692
rwrist 13.8347
rhand -26.4959 12.0757
rfingers 7.12502
rthumb 0.0668046 -17.904
lclavicle 4.55217e-014 -2.14687e-014
lhumerus 50.6859 4.2186 48.4793
lradius 101.014
lwrist -2.24452
lhand -38.5479 23.8463
lfingers 7.12502
lthumb -11.5677 53.5071
rfemur -10.8797 2.5068 9.68373
rtibia 24.9018
rfoot -15.4255 -9.33047
rtoes 2.24955
lfemur -1.34843 1.19449 -24.4768
ltibia 13.4917
lfoot -9.77856 6.88135
ltoes -11.4214
216
root 0.713318 17.9534 -0.692732 1.32244 -30.5817 2.48864
lowerback 2.14313 -1.8198 -5.119
upperback 0.0372215 -2.53032 2.50394
thorax -0.828257 -1.24521 5.53249
lowerneck -25.9827 0.782577 -10.5653
upperneck 0.44386 3.55074 6.51583
head 3.79915 2.076 4.10912
rclavicle 3.52843e-014 9.54166e-015
rhumerus -34.2868 -7.72686 -70.4867
rradius 38.7235
rwrist 13.943
rhand -26.5407 12.1088
rfingers 7.12502
rthumb 0.0235275 -17.871
lclavicle 3.52843e-014 9.54166e-015
lhumerus 51.0564 4.50998 48.2862
lradius 100.98
lwrist -2.19665
lhand -38.4637 23.9946
lfingers 7.12502
lthumb -11.4865 53.6599
rfemur -10.8638 2.46889 9.77788
rtibia 24.8617
rfoot -15.3267 -9.35354
rtoes 1.69545
lfemur -1.39839 1.19876 -24.3785
ltibia 13.5693
lfoot -9.84119 6.78369
ltoes -11.5183
217
root 0.712503 17.9538 -0.691152 1.38931 -30.5378 2.3957
lowerback 2.14757 -1.84438 -5.01238
upperback 0.0595012 -2.56052 2.51843
thorax -0.807693 -1.262 5.48715
lowerneck -26.2634 0.734857 -10.6474
upperneck 0.339109 3.51946 6.76367
head 3.80287 2.08141 4.20427
rclavicle -7.79733e-014 2.14687e-014
rhumerus -34.2349 -7.76242 -70.5137
rradius 38.7184
rwrist 13.9553
rhand -26.5356 12.1096
rfingers 7.12502
rthumb 0.0284869 -17.8701
lclavicle -7.79733e-014 2.14687e-014
lhumerus 51.4092 4.82196 48.1024
lradius 100.909
lwrist -2.24402
lhand -38.289 24.2914
lfingers 7.12502
lthumb -11.318 53.966
rfemur -10.8606 2.46017 9.87838
rtibia 24.832
rfoot -15.2713 -9.40367
rtoes 1.5973
lfemur -1.45405 1.19425 -24.2889
ltibia 13.6485
lfoot -9.88166 6.74588
ltoes -12.0447
218
root 0.712475 17.9525 -0.690557 1.417 -30.5446 2.37746
lowerback 2.1699 -1.84014 -4.97185
upperback 0.0683874 -2.55475 2.52304
thorax -0.813359 -1.25931 5.46952
lowerneck -26.5867 0.609533 -10.7923
upperneck 0.365037 3.4072 7.04898
head 3.85959 2.04839 4.31727
rclavicle -6.7388e-014 7.95139e-015
rhumerus -34.2654 -7.6589 -70.5399
rradius 38.8084
rwrist 13.854
rhand -26.5882 12.0682
rfingers 7.12502
rthumb -0.0223827 -17.9115
lclavicle -6.7388e-014 7.95139e-015
lhumerus 51.823 5.15754 48.0237
lradius 100.761
lwrist -2.22074
lhand -38.2458 24.6417
lfingers 7.12502
lthumb -11.2764 54.3186
rfemur -10.8645 2.49383 9.89516
rtibia 24.8229
rfoot -15.3452 -9.38716
rtoes 1.83973
lfemur -1.50653 1.29093 -24.2748
ltibia 13.7181
lfoot -9.84635 6.74596
ltoes -12.3076
219
root 0.711719 17.9519 -0.690295 1.36833 -30.6027 2.39849
lowerback 2.26076 -1.8208 -4.98794
upperback 0.0762558 -2.53318 2.53328
thorax -0.857881 -1.24725 5.49249
lowerneck -26.5396 0.471651 -10.8708
upperneck -0.0471194 3.24741 7.06774
head 3.73564 1.97473 4.31383
rclavicle 6.70898e-014 -2.06736e-014
rhumerus -34.3089 -7.48371 -70.5589
rradius 38.8979
rwrist 13.6992
rhand -26.6782 12.0398
rfingers 7.12502
rthumb -0.109261 -17.9399
lclavicle 6.70898e-014 -2.06736e-014
lhumerus 52.3108 5.50507 48.0084
lradius 100.352
lwrist -2.07997
lhand -38.4801 23.901
lfingers 7.12502
lthumb -11.5023 53.5654
rfemur -10.832 2.60974 9.87242
rtibia 24.8365
rfoot -15.4578 -9.37864
rtoes 2.26143
lfemur -1.48921 1.31675 -24.2878
ltibia 13.7695
lfoot -9.87484 6.78452
ltoes -11.9604
220
root 0.71058 17.9508 -0.690225 1.31038 -30.6134 2.45341
lowerback 2.3501 -1.81849 -5.02832
upperback 0.0782613 -2.53501 2.54093
thorax -0.903601 -1.24662 5.52704
lowerneck -26.2789 0.396297 -10.7787
upperneck -0.751053 3.11734 6.81766
head 3.49317 1.89879 4.1907
rclavicle -4.27387e-014 9.54166e-015
rhumerus -34.3479 -7.3558 -70.5696
rradius 38.9793
rwrist 13.5634
rhand -26.6626 11.9199
rfingers 7.12502
rthumb -0.094223 -18.0598
lclavicle -4.27387e-014 9.54166e-015
lhumerus 52.7199 5.81588 47.9855
lradius 99.9315
lwrist -2.17959
lhand -38.7674 22.6739
lfingers 7.12502
lthumb -11.7794 52.3227
rfemur -10.8202 2.68925 9.82448
rtibia 24.8797
rfoot -15.5695 -9.38548
rtoes 2.66274
lfemur -1.45452 1.27209 -24.331
ltibia 13.7665
lfoot -9.92742 6.78718
ltoes -11.8631
221
root 0.709628 17.9503 -0.688432 1.30496 -30.6054 2.46843
lowerback 2.38681 -1.81666 -5.01827
upperback 0.0814696 -2.53386 2.54505
thorax -0.921286 -1.24561 5.52702
lowerneck -26.1934 0.352202 -10.6916
upperneck -1.28714 3.02912 6.78733
head 3.3225 1.85817 4.15083
rclavicle -4.24405e-014 6.36111e-015
rhumerus -34.3901 -7.40649 -70.5399
rradius 39.0584
rwrist 13.5809
rhand -26.5021 11.8945
rfingers 7.12502
rthumb 0.0607694 -18.0853
lclavicle -4.24405e-014 6.36111e-015
lhumerus 53.0987 6.08096 47.912
lradius 99.7103
lwrist -2.4427
lhand -38.7389 22.3433
lfingers 7.12502
lthumb -11.7519 51.9936
rfemur -10.8416 2.66863 9.81553
rtibia 24.9228
rfoot -15.5506 -9.38722
rtoes 2.4916
lfemur -1.43018 1.34604 -24.3466
ltibia 13.722
lfoot -9.92212 6.71378
ltoes -12.4631
222
root 0.708656 17.9496 -0.684854 1.25382 -30.6484 2.54467
lowerback 2.46727 -1.81521 -5.10692
upperback 0.0569881 -2.53796 2.56597
thorax -0.986394 -1.2446 5.60333
lowerneck -26.4061 0.332542 -10.8257
upperneck -1.38932 3.04209 7.11305
head 3.31375 1.88885 4.28228
rclavicle 2.61402e-014 9.54166e-015
rhumerus -34.458 -7.35881 -70.4685
rradius 39.1215
rwrist 13.6126
rhand -26.3996 12.071
rfingers 7.12502
rthumb 0.159802 -17.9087
lclavicle 2.61402e-014 9.54166e-015
lhumerus 53.4365 6.4137 47.8127
lradius 99.536
lwrist -2.51293
lhand -38.7294 22.7903
lfingers 7.12502
lthumb -11.7428 52.4411
rfemur -10.853 2.66005 9.74731
rtibia 24.9561
rfoot -15.512 -9.41846
rtoes 2.10355
lfemur -1.38198 1.34315 -24.4287
ltibia 13.6841
lfoot -9.88124 6.78689
ltoes -12.1911
223
root 0.707716 17.9508 -0.681141 1.28169 -30.7189 2.54454
lowerback 2.48332 -1.81358 -5.12395
upperback 0.055714 -2.5369 2.57931
thorax -0.995519 -1.24369 5.62766
lowerneck -26.7787 0.318561 -10.912
upperneck -1.29891 3.06159 7.43963
head 3.38694 1.923 4.41297
rclavicle -5.15846e-014 0
rhumerus -34.4444 -7.30797 -70.4741
rradius 39.1531
rwrist 13.6108
rhand -26.3339 12.2853
rfingers 7.12502
rthumb 0.223265 -17.6943
lclavicle -5.15846e-014 0
lhumerus 53.8984 6.84211 47.6969
lradius 99.324
lwrist -2.55315
lhand -38.6943 22.8695
lfingers 7.12502
lthumb -11.7088 52.5222
rfemur -10.9065 2.67101 9.74368
rtibia 24.9678
rfoot -15.4604 -9.39994
rtoes 1.87968
lfemur -1.39035 1.27753 -24.4331
ltibia 13.6688
lfoot -9.87413 6.8953
ltoes -11.5494
224
root 0.707487 17.9501 -0.680102 1.31606 -30.7313 2.52687
lowerback 2.51616 -1.8082 -5.10167
upperback 0.0567387 -2.5305 2.5841
thorax -1.01449 -1.24 5.62118
lowerneck -26.8744 0.30464 -10.8721
upperneck -1.52007 3.03671 7.50891
head 3.33274 1.91821 4.42622
rclavicle -1.61016e-014 -7.95139e-015
rhumerus -34.3506 -7.38266 -70.4639
rradius 39.025
rwrist 13.6902
rhand -26.3341 12.3916
rfingers 7.12502
rthumb 0.223077 -17.588
lclavicle -1.61016e-014 -7.95139e-015
lhumerus 54.3492 7.18645 47.5564
lradius 99.1346
lwrist -2.49252
lhand -38.7272 22.7146
lfingers 7.12502
lthumb -11.7406 52.3656
rfemur -10.9396 2.66274 9.74833
rtibia 24.9866
rfoot -15.4571 -9.28913
rtoes 2.12941
lfemur -1.39031 1.20228 -24.4228
ltibia 13.6239
lfoot -9.86409 6.94955
ltoes -11.4805
225
root 0.706057 17.9499 -0.677979 1.33452 -30.7515 2.4821
lowerback 2.57818 -1.80577 -5.09562
upperback 0.0493556 -2.52964 2.62022
thorax -1.05566 -1.23812 5.6583
lowerneck -26.7184 0.367392 -10.6699
upperneck -2.10844 3.06199 7.25134
head 3.12931 1.91651 4.30188
rclavicle -1.98785e-015 0
rhumerus -34.2629 -7.43342 -70.4274
rradius 38.8539
rwrist 13.8107
rhand -26.4135 12.4891
rfingers 7.12502
rthumb 0.146384 -17.4906
lclavicle -1.98785e-015 0
lhumerus 54.6939 7.52698 47.4274
lradius 98.9585
lwrist -2.3747
lhand -39.1069 23.7254
lfingers 7.12502
lthumb -12.1067 53.3551
rfemur -10.9343 2.71495 9.79106
rtibia 25.0039
rfoot -15.4625 -9.29945
rtoes 2.01097
lfemur -1.35427 1.17355 -24.3828
ltibia 13.5777
lfoot -9.85056 6.99336
ltoes -11.5773
226
root 0.70531 17.9481 -0.673067 1.26697 -30.7712 2.55601
lowerback 2.63477 -1.8031 -5.15608
upperback 0.0526082 -2.53035 2.62391
thorax -1.08119 -1.23743 5.69884
lowerneck -26.6531 0.398245 -10.5582
upperneck -2.63132 3.07345 7.09841
head 2.95807 1.91536 4.22803
rclavicle 3.52346e-014 1.03368e-014
rhumerus -34.2523 -7.43071 -70.3861
rradius 38.8098
rwrist 13.8376
rhand -26.466 12.5338
rfingers 7.12502
rthumb 0.0956239 -17.446
lclavicle 3.52346e-014 1.03368e-014
lhumerus 55.0464 7.89163 47.4406
lradius 98.7911
lwrist -2.37051
lhand -38.9956 25.3968
lfingers 7.12502
lthumb -11.9994 55.0328
rfemur -10.9026 2.74598 9.71684
rtibia 25.0249
rfoot -15.4928 -9.31991
rtoes 1.83859
lfemur -1.28143 1.15735 -24.4643
ltibia 13.5441
lfoot -9.84969 7.05695
ltoes -11.5589
